<svg width="25" height="27" viewBox="0 0 25 27" fill="none" xmlns="http://www.w3.org/2000/svg">
<path d="M24.8503 12.3902C24.851 12.381 24.8515 12.3718 24.8517 12.3625C24.8517 12.3604 24.852 12.3583 24.852 12.3562C24.852 12.3549 24.8522 12.3536 24.8522 12.3523C24.8522 5.54123 19.311 0 12.4999 0C5.6888 0 0.14757 5.54123 0.14757 12.3523C0.14757 12.3651 0.148572 12.3776 0.149484 12.3902C0.134078 12.5274 0.173277 12.6702 0.272916 12.7811L11.9912 25.8181V26.4986C11.9912 26.7756 12.2157 27 12.4926 27C12.7696 27 12.994 26.7756 12.994 26.4986V25.8444L24.727 12.781C24.8266 12.6701 24.8657 12.5274 24.8503 12.3902ZM1.30577 12.43C1.95438 11.8968 2.75915 11.6066 3.61169 11.6066C4.55785 11.6066 5.44531 11.9642 6.12555 12.6148L10.738 22.9237L1.30577 12.43ZM11.9985 23.2856L7.16606 12.4851C7.82552 11.9169 8.65582 11.6066 9.53716 11.6066C10.4591 11.6066 11.3255 11.9456 11.9985 12.5646V23.2856ZM14.2616 22.9325L18.8745 12.6147C19.5548 11.9642 20.442 11.6066 21.3882 11.6066C22.2408 11.6066 23.0457 11.8969 23.6944 12.4302L14.2616 22.9325ZM13.0013 23.2944V12.5647C13.6743 11.9456 14.5407 11.6066 15.4626 11.6066C16.3441 11.6066 17.1744 11.9169 17.8339 12.4852L13.0013 23.2944ZM21.3882 10.6039C21.3881 10.6039 21.3882 10.6039 21.3882 10.6039C20.2916 10.6039 19.2562 10.9796 18.4255 11.6708C17.5946 10.9795 16.5594 10.6039 15.4627 10.6039C15.4626 10.6039 15.4627 10.6039 15.4627 10.6039C14.3661 10.6039 13.3308 10.9796 12.5 11.6708C11.6691 10.9795 10.6339 10.6039 9.53725 10.6039C9.53716 10.6039 9.53725 10.6039 9.53725 10.6039C8.44068 10.6039 7.40536 10.9796 6.57452 11.6708C5.74368 10.9795 4.70845 10.6039 3.61178 10.6039C2.74685 10.6039 1.9202 10.8377 1.20185 11.2755C1.74599 5.52063 6.60497 1.00277 12.4999 1.00277C18.3948 1.00277 23.2539 5.52063 23.798 11.2755C23.0797 10.8377 22.253 10.6039 21.3882 10.6039Z" fill="black"/>
</svg>
